<svg width="124" height="33" viewBox="0 0 124 33" fill="none" xmlns="http://www.w3.org/2000/svg">
<path fill-rule="evenodd" clip-rule="evenodd" d="M15.6156 26.2761L15.5264 26.3638C14.095 27.8219 12.4377 28.5951 10.7315 28.5951C7.16945 28.5951 4.58281 25.9215 4.58281 22.2328C4.58281 18.5514 7.16945 15.8763 10.7315 15.8763C12.4377 15.8763 14.095 16.651 15.5264 18.1119L15.6156 18.2018L17.9066 15.4303L17.8454 15.3555C15.9414 13.1033 13.654 12.0086 10.843 12.0086C8.02398 12.0086 5.44382 12.958 3.58584 14.6693C1.5653 16.5244 0.5 19.1384 0.5 22.2336C0.5 25.3295 1.5653 27.9499 3.58584 29.8043C5.44382 31.5242 8.02327 32.4672 10.843 32.4672C13.654 32.4672 15.9414 31.3724 17.8454 29.1195L17.9066 29.0497L15.6156 26.2761ZM20.222 32.0881H24.2703V12.3279H20.222V32.0881ZM40.1282 27.7924C39.0464 28.4498 38.0422 28.7814 37.1381 28.7814C35.8304 28.7814 35.2384 28.0909 35.2384 26.553V16.0669H39.3629V12.3459H35.2384V6.19653L31.2714 8.32065V12.3459H27.8489V16.0669H31.2714V27.2227C31.2714 30.2596 33.0711 32.3355 35.7606 32.3924C37.584 32.4276 38.6839 31.8838 39.3514 31.4853L39.3924 31.458L40.3656 27.6471L40.1282 27.7924ZM43.4788 32.0881H47.5307V12.3279H43.4788V32.0881Z" fill="#1C4882"/>
<path fill-rule="evenodd" clip-rule="evenodd" d="M49.8897 8.86198C46.1917 3.62396 40.0509 0.5 33.803 0.5C27.5565 0.5 21.4136 3.62468 17.7221 8.86198L17.5322 9.131H22.1898L22.2394 9.0749C25.4101 5.80635 29.5483 4.07569 33.803 4.07569C38.0577 4.07569 42.1938 5.80635 45.3695 9.0749L45.4235 9.131H50.076L49.8897 8.86198Z" fill="#CC2131"/>
<path fill-rule="evenodd" clip-rule="evenodd" d="M55.2595 17.0237L55.2048 17.0963V27.3185L55.2444 27.381C56.5197 29.3527 58.5978 30.5323 60.8054 30.5323C64.2185 30.5323 65.9491 27.6558 65.9491 21.9855C65.9491 16.9165 64.0329 14.0141 60.6917 14.0141C58.6647 14.0134 56.8369 15.0262 55.2595 17.0237ZM123.382 32.0184V32.0875H120.936C120.797 31.807 115.812 21.2518 115.812 21.2518L112.091 26.469V32.0882H109.781V6.12902C109.983 6.01321 111.545 5.11695 112.091 4.8098V23.6586L113.354 21.6978C113.35 21.7042 119.017 13.5005 119.742 12.4546H122.271C121.733 13.1747 117.278 19.3068 117.278 19.3068C117.278 19.3068 122.804 30.8301 123.382 32.0184ZM77.3344 32.5004H76.354C74.3643 32.3853 70.7807 31.4617 70.7807 26.3193C70.7807 21.751 74.5514 20.1297 78.0832 20.1297C79.8592 20.1297 81.6107 20.5375 82.881 21.2518L83.2629 21.4611V18.6436C83.2629 15.5189 81.7373 13.9364 78.7198 13.9364C76.8596 13.9364 75.1808 14.4032 73.4623 15.375C73.3077 15.0262 72.774 13.8443 72.6265 13.5106C74.4248 12.5604 76.646 12.0302 78.9089 12.0302C83.3931 12.0302 85.5741 14.0781 85.5741 18.2983V32.0875H83.2629V29.2239L82.8148 29.721C81.2359 31.4595 79.442 32.3766 77.3344 32.5004ZM61.4563 32.5004H60.5421C58.6309 32.3824 57.0685 31.5523 55.6537 29.9152L55.2048 29.3908V32.0875H52.8994V6.1283C53.0943 6.01249 54.6632 5.11623 55.2048 4.80908V15.3132L55.6508 14.8233C57.3541 12.9438 59.2365 12.0302 61.4024 12.0302C65.7362 12.0302 68.2243 15.6412 68.2243 21.9438C68.2236 28.15 65.5809 32.2357 61.4563 32.5004ZM73.0437 26.1287C73.0437 29.0657 74.565 30.6805 77.3286 30.6805C79.6815 30.6805 81.7696 29.5692 83.2183 27.5486L83.2629 27.4796V23.1752L83.1335 23.1004C81.6582 22.2596 80.1512 21.9193 77.93 21.9193C74.8743 21.92 73.0437 23.4939 73.0437 26.1287ZM93.1117 14.7931C94.3029 13.0128 96.1702 12.0302 98.3562 12.0302C102.712 12.0302 105.021 14.8082 105.021 20.0657V32.0875H102.704V20.5634C102.704 16.0915 101.151 14.0134 97.7887 14.0134C94.5669 14.0134 92.6427 16.4641 92.6427 20.5634V32.0875H90.3345V12.4546H92.6427V15.498L93.1117 14.7931Z" fill="#1C4882"/>
</svg>
