<svg width="54" height="52" viewBox="0 0 54 52" fill="none" xmlns="http://www.w3.org/2000/svg">
<path d="M21.2275 18.2775L22.0563 13.4986L22.8852 18.2775C23.8338 23.747 28.1122 28.0332 33.5799 28.9919L38.3224 29.8234L33.5799 30.655C28.1122 31.6137 23.8338 35.8999 22.8852 41.3694L22.0563 46.1482L21.2275 41.3694C20.2788 35.8999 16.0005 31.6137 10.5328 30.655L5.79029 29.8234L10.5328 28.9919C16.0005 28.0332 20.2788 23.747 21.2275 18.2775Z" stroke="#1877F2" stroke-width="2"/>
<path d="M39.0805 10.3235C41.3411 9.70114 43.1111 7.93019 43.7324 5.66973C44.3538 7.93019 46.1238 9.70114 48.3844 10.3235C46.1238 10.9459 44.3538 12.7169 43.7324 14.9773C43.1111 12.7169 41.3411 10.9459 39.0805 10.3235Z" stroke="#1877F2" stroke-width="2"/>
</svg>
