<svg width="224" height="46" viewBox="0 0 224 46" fill="none" xmlns="http://www.w3.org/2000/svg">
<path d="M74.0174 20.9962C74.0174 21.656 73.9735 22.2497 73.8855 22.7775H60.5264C60.6363 24.0969 61.0981 25.1304 61.9118 25.8781C62.7254 26.6258 63.726 26.9996 64.9134 26.9996C66.6287 26.9996 67.8492 26.2629 68.5748 24.7896H73.5556C73.0279 26.5488 72.0163 28.0002 70.521 29.1437C69.0256 30.2652 67.1894 30.8259 65.0124 30.8259C63.2532 30.8259 61.6699 30.4411 60.2625 29.6714C58.8771 28.8798 57.7886 27.7693 56.9969 26.3399C56.2273 24.9105 55.8424 23.2612 55.8424 21.3921C55.8424 19.5009 56.2273 17.8406 56.9969 16.4113C57.7666 14.9819 58.8441 13.8824 60.2295 13.1127C61.6149 12.343 63.2092 11.9582 65.0124 11.9582C66.7496 11.9582 68.3 12.332 69.6634 13.0797C71.0487 13.8274 72.1153 14.8939 72.863 16.2793C73.6326 17.6427 74.0174 19.215 74.0174 20.9962ZM69.2345 19.6768C69.2126 18.4893 68.7837 17.5438 67.9481 16.8401C67.1125 16.1144 66.0899 15.7515 64.8805 15.7515C63.737 15.7515 62.7694 16.1034 61.9777 16.8071C61.2081 17.4888 60.7353 18.4454 60.5594 19.6768H69.2345ZM76.2007 21.3261C76.2007 19.4789 76.5635 17.8406 77.2892 16.4113C78.0369 14.9819 79.0484 13.8824 80.3239 13.1127C81.5993 12.343 83.0177 11.9582 84.579 11.9582C85.7665 11.9582 86.899 12.2221 87.9765 12.7499C89.054 13.2556 89.9116 13.9373 90.5494 14.795V6.11978H95.2333V30.5291H90.5494V27.8242C89.9776 28.7258 89.175 29.4515 88.1414 30.0013C87.1079 30.551 85.9094 30.8259 84.546 30.8259C83.0067 30.8259 81.5993 30.4301 80.3239 29.6384C79.0484 28.8468 78.0369 27.7363 77.2892 26.3069C76.5635 24.8555 76.2007 23.1953 76.2007 21.3261ZM90.5824 21.3921C90.5824 20.2706 90.3625 19.314 89.9226 18.5223C89.4828 17.7087 88.8891 17.093 88.1414 16.6751C87.3938 16.2353 86.5911 16.0154 85.7335 16.0154C84.8759 16.0154 84.0842 16.2243 83.3585 16.6422C82.6328 17.06 82.0391 17.6757 81.5773 18.4893C81.1375 19.281 80.9176 20.2266 80.9176 21.3261C80.9176 22.4256 81.1375 23.3932 81.5773 24.2288C82.0391 25.0425 82.6328 25.6692 83.3585 26.109C84.1062 26.5488 84.8979 26.7687 85.7335 26.7687C86.5911 26.7687 87.3938 26.5598 88.1414 26.142C88.8891 25.7022 89.4828 25.0864 89.9226 24.2948C90.3625 23.4811 90.5824 22.5136 90.5824 21.3921ZM116.995 12.2551V30.5291H112.344V28.2201C111.75 29.0117 110.97 29.6384 110.002 30.1002C109.056 30.54 108.023 30.76 106.901 30.76C105.472 30.76 104.208 30.4631 103.108 29.8693C102.009 29.2536 101.14 28.363 100.502 27.1975C99.8865 26.01 99.5786 24.6027 99.5786 22.9754V12.2551H104.197V22.3157C104.197 23.767 104.559 24.8885 105.285 25.6802C106.011 26.4498 107 26.8347 108.254 26.8347C109.529 26.8347 110.53 26.4498 111.256 25.6802C111.981 24.8885 112.344 23.767 112.344 22.3157V12.2551H116.995Z" fill="#181717"/>
<path d="M126.169 14.8939C126.763 14.0583 127.577 13.3656 128.61 12.8158C129.666 12.2441 130.864 11.9582 132.206 11.9582C133.767 11.9582 135.174 12.343 136.428 13.1127C137.703 13.8824 138.704 14.9819 139.43 16.4113C140.177 17.8186 140.551 19.4569 140.551 21.3261C140.551 23.1953 140.177 24.8555 139.43 26.3069C138.704 27.7363 137.703 28.8468 136.428 29.6384C135.174 30.4301 133.767 30.8259 132.206 30.8259C130.864 30.8259 129.677 30.551 128.643 30.0013C127.632 29.4515 126.807 28.7588 126.169 27.9232V39.2372H121.551V12.2551H126.169V14.8939ZM135.834 21.3261C135.834 20.2266 135.603 19.281 135.141 18.4893C134.702 17.6757 134.108 17.06 133.36 16.6422C132.634 16.2243 131.843 16.0154 130.985 16.0154C130.15 16.0154 129.358 16.2353 128.61 16.6751C127.885 17.093 127.291 17.7087 126.829 18.5223C126.389 19.336 126.169 20.2925 126.169 21.3921C126.169 22.4916 126.389 23.4482 126.829 24.2618C127.291 25.0754 127.885 25.7022 128.61 26.142C129.358 26.5598 130.15 26.7687 130.985 26.7687C131.843 26.7687 132.634 26.5488 133.36 26.109C134.108 25.6692 134.702 25.0425 135.141 24.2288C135.603 23.4152 135.834 22.4476 135.834 21.3261ZM154.198 11.9912C155.584 11.9912 156.815 12.2991 157.893 12.9148C158.97 13.5085 159.806 14.3991 160.4 15.5866C161.015 16.7521 161.323 18.1595 161.323 19.8088V30.5291H156.705V20.4355C156.705 18.9841 156.342 17.8736 155.617 17.104C154.891 16.3123 153.901 15.9165 152.648 15.9165C151.373 15.9165 150.361 16.3123 149.613 17.104C148.888 17.8736 148.525 18.9841 148.525 20.4355V30.5291H143.907V6.11978H148.525V14.5311C149.118 13.7394 149.91 13.1237 150.9 12.6839C151.889 12.2221 152.989 11.9912 154.198 11.9912ZM168.057 10.078C167.243 10.078 166.561 9.82515 166.011 9.31937C165.484 8.7916 165.22 8.14289 165.22 7.37323C165.22 6.60356 165.484 5.96584 166.011 5.46007C166.561 4.9323 167.243 4.66841 168.057 4.66841C168.87 4.66841 169.541 4.9323 170.069 5.46007C170.618 5.96584 170.893 6.60356 170.893 7.37323C170.893 8.14289 170.618 8.7916 170.069 9.31937C169.541 9.82515 168.87 10.078 168.057 10.078ZM170.333 12.2551V30.5291H165.715V12.2551H170.333ZM181.888 30.8259C180.393 30.8259 179.051 30.562 177.864 30.0343C176.676 29.4845 175.731 28.7478 175.027 27.8242C174.345 26.9006 173.972 25.8781 173.906 24.7566H178.557C178.644 25.4603 178.985 26.043 179.579 26.5048C180.195 26.9666 180.953 27.1975 181.855 27.1975C182.735 27.1975 183.416 27.0216 183.9 26.6697C184.406 26.3179 184.659 25.8671 184.659 25.3173C184.659 24.7236 184.351 24.2838 183.735 23.9979C183.141 23.6901 182.185 23.3602 180.865 23.0084C179.502 22.6785 178.381 22.3377 177.501 21.9858C176.643 21.634 175.896 21.0952 175.258 20.3695C174.642 19.6438 174.334 18.6653 174.334 17.4338C174.334 16.4222 174.62 15.4987 175.192 14.663C175.786 13.8274 176.621 13.1677 177.699 12.6839C178.798 12.2001 180.085 11.9582 181.558 11.9582C183.735 11.9582 185.472 12.508 186.77 13.6075C188.067 14.685 188.782 16.1474 188.914 17.9946H184.494C184.428 17.2689 184.12 16.6971 183.57 16.2793C183.043 15.8395 182.328 15.6196 181.426 15.6196C180.591 15.6196 179.942 15.7735 179.48 16.0814C179.04 16.3893 178.82 16.8181 178.82 17.3678C178.82 17.9836 179.128 18.4564 179.744 18.7862C180.36 19.0941 181.316 19.4129 182.614 19.7428C183.933 20.0726 185.022 20.4135 185.879 20.7653C186.737 21.1172 187.474 21.6669 188.089 22.4146C188.727 23.1403 189.057 24.1079 189.079 25.3173C189.079 26.3729 188.782 27.3185 188.188 28.1541C187.617 28.9897 186.781 29.6494 185.681 30.1332C184.604 30.595 183.339 30.8259 181.888 30.8259ZM209.857 20.9962C209.857 21.656 209.813 22.2497 209.725 22.7775H196.366C196.476 24.0969 196.938 25.1304 197.751 25.8781C198.565 26.6258 199.566 26.9996 200.753 26.9996C202.468 26.9996 203.689 26.2629 204.415 24.7896H209.395C208.868 26.5488 207.856 28.0002 206.361 29.1437C204.865 30.2652 203.029 30.8259 200.852 30.8259C199.093 30.8259 197.51 30.4411 196.102 29.6714C194.717 28.8798 193.628 27.7693 192.837 26.3399C192.067 24.9105 191.682 23.2612 191.682 21.3921C191.682 19.5009 192.067 17.8406 192.837 16.4113C193.606 14.9819 194.684 13.8824 196.069 13.1127C197.455 12.343 199.049 11.9582 200.852 11.9582C202.589 11.9582 204.14 12.332 205.503 13.0797C206.888 13.8274 207.955 14.8939 208.703 16.2793C209.472 17.6427 209.857 19.215 209.857 20.9962ZM205.074 19.6768C205.052 18.4893 204.623 17.5438 203.788 16.8401C202.952 16.1144 201.93 15.7515 200.72 15.7515C199.577 15.7515 198.609 16.1034 197.817 16.8071C197.048 17.4888 196.575 18.4454 196.399 19.6768H205.074ZM217.846 15.0918C218.44 14.1243 219.209 13.3656 220.155 12.8158C221.122 12.2661 222.222 11.9912 223.453 11.9912V16.8401H222.233C220.782 16.8401 219.682 17.1809 218.934 17.8626C218.209 18.5443 217.846 19.7318 217.846 21.4251V30.5291H213.228V12.2551H217.846V15.0918Z" fill="#1877F2"/>
<circle cx="20.9056" cy="24.5961" r="20.6532" fill="#1877F2"/>
<path d="M20.2287 11.0604C20.3672 10.3088 21.4444 10.3088 21.5828 11.0604L22.0796 13.7569C22.985 18.6716 26.8305 22.5171 31.7452 23.4225L34.4416 23.9192C35.1933 24.0577 35.1933 25.1349 34.4416 25.2733L31.7452 25.7701C26.8305 26.6755 22.985 30.521 22.0796 35.4357L21.5828 38.1321C21.4444 38.8838 20.3672 38.8838 20.2287 38.1321L19.732 35.4357C18.8266 30.521 14.9811 26.6755 10.0664 25.7701L7.36995 25.2733C6.61833 25.1349 6.61833 24.0577 7.36995 23.9192L10.0664 23.4225C14.9811 22.5171 18.8266 18.6716 19.732 13.7569L20.2287 11.0604Z" fill="white"/>
<path d="M32.865 8.71202C32.9081 8.47803 33.2435 8.47803 33.2866 8.71202L33.4412 9.55147C33.7231 11.0815 34.9203 12.2787 36.4503 12.5606L37.2898 12.7152C37.5238 12.7583 37.5238 13.0936 37.2898 13.1368L36.4503 13.2914C34.9203 13.5733 33.7231 14.7704 33.4412 16.3005L33.2866 17.1399C33.2435 17.3739 32.9081 17.3739 32.865 17.1399L32.7104 16.3005C32.4285 14.7704 31.2313 13.5733 29.7013 13.2914L28.8619 13.1368C28.6279 13.0936 28.6279 12.7583 28.8619 12.7152L29.7013 12.5606C31.2313 12.2787 32.4285 11.0815 32.7104 9.55147L32.865 8.71202Z" fill="white"/>
</svg>
