<svg width="73" height="65" viewBox="0 0 73 65" fill="none" xmlns="http://www.w3.org/2000/svg">
<path d="M27.6134 23.4509L29.5179 12.7218L31.4223 23.4509C32.3924 28.9164 36.6873 33.1857 42.1585 34.123L53.1139 36L42.1585 37.877C36.6873 38.8143 32.3924 43.0836 31.4223 48.549L29.5179 59.2782L27.6134 48.5491C26.6433 43.0836 22.3484 38.8143 16.8772 37.877L5.9218 36L16.8772 34.123C22.3484 33.1857 26.6433 28.9164 27.6134 23.4509Z" stroke="#1877F2" stroke-width="2"/>
<path d="M58.167 7.75161L58.5273 5.72181L58.8875 7.75162C59.3786 10.5178 61.5523 12.6786 64.3214 13.153L66.3465 13.5L64.3214 13.847C61.5523 14.3214 59.3786 16.4822 58.8875 19.2484L58.5273 21.2782L58.167 19.2484C57.6759 16.4822 55.5022 14.3214 52.7331 13.847L50.708 13.5L52.7331 13.153C55.5022 12.6786 57.6759 10.5178 58.167 7.75161Z" stroke="#1877F2" stroke-width="2"/>
</svg>
