<svg width="125" height="126" viewBox="0 0 125 126" fill="none" xmlns="http://www.w3.org/2000/svg">
<g filter="url(#filter0_d_631_1087)">
<circle cx="62.5" cy="55.0374" r="45.5" fill="white"/>
</g>
<path d="M48.7733 42.5374C48.7733 39.7759 51.0119 37.5374 53.7733 37.5374H85.7188C89.1162 37.5374 90.9531 41.5184 88.7483 44.1033C86.5436 46.6882 88.3805 50.6692 91.7779 50.6692H94.3487H53.7733C51.0119 50.6692 48.7733 48.4307 48.7733 45.6692V42.5374Z" fill="#1877F2"/>
<path d="M52.6207 37.592C50.4118 37.5618 48.5966 39.328 48.5665 41.537L48.11 74.9623C48.0646 78.285 51.8555 80.2109 54.5122 78.215L56.1291 77.0002C58.7858 75.0043 62.5767 76.9303 62.5314 80.2529L62.4897 83.3064L63.0574 41.7349C63.0876 39.526 61.3214 37.7108 59.1124 37.6806L52.6207 37.592Z" fill="#1877F2"/>
<defs>
<filter id="filter0_d_631_1087" x="0" y="0.537354" width="125" height="125" filterUnits="userSpaceOnUse" color-interpolation-filters="sRGB">
<feFlood flood-opacity="0" result="BackgroundImageFix"/>
<feColorMatrix in="SourceAlpha" type="matrix" values="0 0 0 0 0 0 0 0 0 0 0 0 0 0 0 0 0 0 127 0" result="hardAlpha"/>
<feMorphology radius="1" operator="erode" in="SourceAlpha" result="effect1_dropShadow_631_1087"/>
<feOffset dy="8"/>
<feGaussianBlur stdDeviation="9"/>
<feComposite in2="hardAlpha" operator="out"/>
<feColorMatrix type="matrix" values="0 0 0 0 0 0 0 0 0 0 0 0 0 0 0 0 0 0 0.25 0"/>
<feBlend mode="normal" in2="BackgroundImageFix" result="effect1_dropShadow_631_1087"/>
<feBlend mode="normal" in="SourceGraphic" in2="effect1_dropShadow_631_1087" result="shape"/>
</filter>
</defs>
</svg>
