<svg width="49" height="48" viewBox="0 0 49 48" fill="none" xmlns="http://www.w3.org/2000/svg">
<path d="M21.9989 8.99926H29.4989L37.7239 0.749261C37.9563 0.51494 38.2328 0.328955 38.5374 0.202033C38.8421 0.0751112 39.1688 0.00976562 39.4989 0.00976562C39.8289 0.00976562 40.1557 0.0751112 40.4603 0.202033C40.7649 0.328955 41.0415 0.51494 41.2739 0.749261L47.7239 7.22426C48.1895 7.69267 48.4508 8.3263 48.4508 8.98676C48.4508 9.64723 48.1895 10.2809 47.7239 10.7493L41.9989 16.4993H21.9989V21.4993C21.9989 22.1623 21.7355 22.7982 21.2666 23.267C20.7978 23.7359 20.1619 23.9993 19.4989 23.9993C18.8358 23.9993 18.1999 23.7359 17.7311 23.267C17.2622 22.7982 16.9989 22.1623 16.9989 21.4993V13.9993C16.9989 12.6732 17.5256 11.4014 18.4633 10.4637C19.401 9.52604 20.6728 8.99926 21.9989 8.99926ZM6.99886 21.4993V31.4993L1.27386 37.2243C0.808229 37.6927 0.546875 38.3263 0.546875 38.9868C0.546875 39.6472 0.808229 40.2809 1.27386 40.7493L7.72386 47.2243C7.95626 47.4586 8.23277 47.6446 8.53741 47.7715C8.84206 47.8984 9.16883 47.9638 9.49886 47.9638C9.82889 47.9638 10.1557 47.8984 10.4603 47.7715C10.7649 47.6446 11.0414 47.4586 11.2739 47.2243L21.9989 36.4993H31.9989C32.6619 36.4993 33.2978 36.2359 33.7666 35.767C34.2355 35.2982 34.4989 34.6623 34.4989 33.9993V31.4993H36.9989C37.6619 31.4993 38.2978 31.2359 38.7666 30.767C39.2355 30.2982 39.4989 29.6623 39.4989 28.9993V26.4993H41.9989C42.6619 26.4993 43.2978 26.2359 43.7666 25.767C44.2355 25.2982 44.4989 24.6623 44.4989 23.9993V21.4993H26.9989V23.9993C26.9989 25.3253 26.4721 26.5971 25.5344 27.5348C24.5967 28.4725 23.3249 28.9993 21.9989 28.9993H16.9989C15.6728 28.9993 14.401 28.4725 13.4633 27.5348C12.5256 26.5971 11.9989 25.3253 11.9989 23.9993V16.4993L6.99886 21.4993Z" fill="#DC3545"/>
</svg>
